<svg width="160" height="38" viewBox="0 0 160 38" fill="none" xmlns="http://www.w3.org/2000/svg">
<path d="M60.2641 9.44987H64.1696L73.4943 30.8846H68.1659L66.3191 26.3433H57.9935L56.2073 30.8846H51L60.2641 9.44987ZM62.0806 15.6865L59.477 22.347H64.7146L62.0806 15.6865Z" fill="black"/>
<path d="M75.6502 9.44987H82.7346C84.4501 9.44987 86.0749 9.64161 87.6088 10.0251C89.1629 10.4086 90.5152 11.0343 91.6657 11.9021C92.8161 12.7498 93.7244 13.8599 94.3904 15.2324C95.0766 16.6049 95.4198 18.27 95.4198 20.2278C95.4198 21.9635 95.0867 23.4975 94.4207 24.8296C93.7748 26.1415 92.8969 27.2516 91.7868 28.1598C90.6767 29.0479 89.395 29.724 87.9418 30.1882C86.4887 30.6524 84.9648 30.8846 83.3703 30.8846H75.6502V9.44987ZM80.3731 26.525H82.8254C83.9153 26.525 84.9244 26.414 85.8529 26.1919C86.8015 25.9699 87.6189 25.6066 88.3051 25.102C88.9914 24.5773 89.5262 23.9011 89.9097 23.0736C90.3134 22.2259 90.5152 21.1966 90.5152 19.9856C90.5152 18.936 90.3134 18.0278 89.9097 17.2608C89.5262 16.4737 89.0015 15.8278 88.3354 15.3232C87.6694 14.8186 86.8822 14.4452 85.974 14.203C85.0859 13.9407 84.1474 13.8095 83.1584 13.8095H80.3731V26.525Z" fill="black"/>
<path d="M98.6225 9.44987H106.615C107.544 9.44987 108.472 9.52051 109.4 9.6618C110.349 9.7829 111.197 10.0453 111.944 10.4489C112.69 10.8324 113.296 11.3774 113.76 12.0838C114.224 12.7902 114.456 13.7287 114.456 14.8994C114.456 16.1104 114.113 17.1195 113.427 17.9269C112.761 18.714 111.873 19.2791 110.763 19.6223V19.6828C111.469 19.7837 112.105 19.9856 112.67 20.2883C113.255 20.5709 113.75 20.9443 114.154 21.4085C114.577 21.8525 114.9 22.3773 115.122 22.9828C115.344 23.5883 115.455 24.2342 115.455 24.9204C115.455 26.0506 115.213 26.9993 114.729 27.7662C114.244 28.513 113.619 29.1185 112.852 29.5827C112.085 30.0469 111.217 30.38 110.248 30.5818C109.299 30.7836 108.351 30.8846 107.402 30.8846H98.6225V9.44987ZM103.345 18.0177H106.766C107.13 18.0177 107.483 17.9773 107.826 17.8966C108.189 17.8159 108.512 17.6847 108.795 17.503C109.077 17.3214 109.3 17.0792 109.461 16.7764C109.643 16.4737 109.733 16.1104 109.733 15.6865C109.733 15.2425 109.633 14.8792 109.431 14.5966C109.249 14.2939 109.007 14.0618 108.704 13.9003C108.401 13.7388 108.058 13.6278 107.675 13.5673C107.291 13.4865 106.918 13.4462 106.555 13.4462H103.345V18.0177ZM103.345 26.8883H107.584C107.947 26.8883 108.311 26.8479 108.674 26.7672C109.057 26.6864 109.4 26.5451 109.703 26.3433C110.006 26.1415 110.248 25.8791 110.43 25.5562C110.632 25.2332 110.733 24.8397 110.733 24.3754C110.733 23.8709 110.601 23.4672 110.339 23.1644C110.097 22.8415 109.784 22.5993 109.4 22.4378C109.017 22.2764 108.603 22.1654 108.159 22.1048C107.715 22.0443 107.301 22.014 106.918 22.014H103.345V26.8883Z" fill="black"/>
<path d="M118.254 9.44987H126.549C127.639 9.44987 128.669 9.56088 129.637 9.7829C130.626 9.98473 131.484 10.3379 132.211 10.8425C132.958 11.3269 133.543 11.993 133.967 12.8407C134.411 13.6682 134.633 14.7076 134.633 15.959C134.633 17.4727 134.239 18.7645 133.452 19.8342C132.665 20.8837 131.514 21.5498 130.001 21.8323L135.45 30.8846H129.789L125.308 22.3167H122.977V30.8846H118.254V9.44987ZM122.977 18.3204H125.762C126.186 18.3204 126.63 18.3103 127.094 18.2902C127.579 18.2498 128.013 18.159 128.396 18.0177C128.78 17.8562 129.092 17.614 129.335 17.2911C129.597 16.9682 129.728 16.514 129.728 15.9287C129.728 15.3838 129.617 14.9498 129.395 14.6269C129.173 14.304 128.891 14.0618 128.547 13.9003C128.204 13.7186 127.811 13.5975 127.367 13.537C126.923 13.4764 126.489 13.4462 126.065 13.4462H122.977V18.3204Z" fill="black"/>
<path d="M136.735 20.1672C136.735 18.4516 137.018 16.8975 137.583 15.5049C138.168 14.1122 138.975 12.9315 140.005 11.9627C141.034 10.9737 142.255 10.2168 143.668 9.69207C145.081 9.1673 146.625 8.90492 148.3 8.90492C149.975 8.90492 151.519 9.1673 152.932 9.69207C154.345 10.2168 155.566 10.9737 156.595 11.9627C157.625 12.9315 158.422 14.1122 158.987 15.5049C159.572 16.8975 159.865 18.4516 159.865 20.1672C159.865 21.8828 159.572 23.4369 158.987 24.8296C158.422 26.2222 157.625 27.413 156.595 28.402C155.566 29.3708 154.345 30.1176 152.932 30.6424C151.519 31.1671 149.975 31.4295 148.3 31.4295C146.625 31.4295 145.081 31.1671 143.668 30.6424C142.255 30.1176 141.034 29.3708 140.005 28.402C138.975 27.413 138.168 26.2222 137.583 24.8296C137.018 23.4369 136.735 21.8828 136.735 20.1672ZM141.639 20.1672C141.639 21.1764 141.791 22.1048 142.094 22.9525C142.417 23.78 142.871 24.5066 143.456 25.1323C144.041 25.7378 144.738 26.2121 145.545 26.5552C146.372 26.8983 147.291 27.0699 148.3 27.0699C149.309 27.0699 150.217 26.8983 151.025 26.5552C151.852 26.2121 152.559 25.7378 153.144 25.1323C153.729 24.5066 154.173 23.78 154.476 22.9525C154.799 22.1048 154.96 21.1764 154.96 20.1672C154.96 19.1782 154.799 18.2599 154.476 17.4122C154.173 16.5645 153.729 15.8379 153.144 15.2324C152.559 14.6067 151.852 14.1223 151.025 13.7792C150.217 13.4361 149.309 13.2645 148.3 13.2645C147.291 13.2645 146.372 13.4361 145.545 13.7792C144.738 14.1223 144.041 14.6067 143.456 15.2324C142.871 15.8379 142.417 16.5645 142.094 17.4122C141.791 18.2599 141.639 19.1782 141.639 20.1672Z" fill="black"/>
<path d="M42.1028 33.1873V33.1922C42.0977 33.2272 42.0927 33.2621 42.0877 33.3021C42.0877 33.3171 42.0827 33.337 42.0777 33.357C42.0727 33.387 42.0677 33.4119 42.0627 33.4419C41.797 34.9098 40.9097 36.2578 39.511 37.0617C36.9895 38.5096 33.7712 37.6508 32.3174 35.1394L28.307 28.2244H25.2892V27.2907C25.3092 27.2907 25.3243 27.2907 25.3443 27.2907C25.3593 27.2907 25.3744 27.2907 25.3894 27.2907C25.4195 27.2907 25.4496 27.2907 25.4797 27.2857C25.9158 27.2458 26.2968 27.0061 26.5224 26.6567C26.5524 26.6117 26.5775 26.5668 26.6026 26.5169C26.6978 26.3271 26.753 26.1124 26.753 25.8878C26.753 25.713 26.7229 25.5482 26.6627 25.3985C26.6627 25.3935 26.6577 25.3835 26.6577 25.3785C26.6577 25.3735 26.6527 25.3685 26.6527 25.3635C26.6477 25.3535 26.6427 25.3385 26.6377 25.3286C26.6226 25.2936 26.6076 25.2587 26.5875 25.2287C26.5575 25.1688 26.5173 25.1089 26.4772 25.054C26.4722 25.044 26.4622 25.034 26.4522 25.024C26.4472 25.014 26.4371 25.004 26.4321 24.999L22.3916 18.0241C22.3866 18.0141 22.3816 17.9991 22.3766 17.9891C22.3616 17.9542 22.3465 17.9192 22.3265 17.8893C22.2964 17.8294 22.2563 17.7694 22.2162 17.7145C22.2112 17.7045 22.2012 17.6945 22.1911 17.6846C21.9355 17.355 21.5294 17.1453 21.0782 17.1453C20.592 17.1453 20.1609 17.39 19.9052 17.7694C19.9002 17.7794 19.8952 17.7844 19.8902 17.7944C19.8701 17.8244 19.8501 17.8593 19.835 17.8893H18.0654V14.0448H22.0558L22.4969 13.2859C22.5721 13.1461 22.6523 13.0063 22.7375 12.8765C22.7576 12.8465 22.7776 12.8166 22.7977 12.7866C23.7401 11.3836 25.3493 10.46 27.169 10.46C28.9035 10.46 30.4425 11.2988 31.4 12.5869L31.9966 13.6104L41.436 29.892C42.0376 30.9305 42.2431 32.0838 42.1028 33.1873Z" fill="url(#paint0_linear)"/>
<path d="M31.4058 12.5869C30.4483 11.2987 28.9093 10.4599 27.1748 10.4599C25.3501 10.4599 23.7459 11.3836 22.8035 12.7866C22.7834 12.8166 22.7634 12.8465 22.7433 12.8765C22.6581 13.0113 22.5779 13.1461 22.5027 13.2859L21.074 15.7473L16.061 24.3999L15.7552 24.9241L15.7251 24.9741L15.6349 25.1288C15.6148 25.1588 15.5948 25.1937 15.5797 25.2237C15.5747 25.2287 15.5747 25.2337 15.5747 25.2387V25.2437C15.5697 25.2537 15.5647 25.2587 15.5597 25.2686C15.4694 25.4534 15.4143 25.6631 15.4143 25.8877C15.4143 26.6167 15.9758 27.2158 16.6876 27.2857C16.7327 27.2907 16.7778 27.2907 16.823 27.2907C16.838 27.2907 16.853 27.2907 16.8681 27.2907V28.3242H13.2086H11.7808L10.8324 27.2807C8.15549 27.0261 6.06006 24.7843 6.06006 22.0483C6.06006 21.2195 6.25055 20.4306 6.59645 19.7366L6.95237 19.1275L16.4069 2.82094C16.4069 2.82094 16.4069 2.82094 16.4069 2.81595L16.5172 2.62622C17.4797 0.968606 19.2091 0.0299569 20.9988 0C21.0489 0 21.1041 0 21.1542 0C22.9438 0.0299569 24.6733 0.968606 25.6358 2.62622L25.7461 2.81096L31.4058 12.5869Z" fill="url(#paint1_linear)"/>
<path d="M42.1442 32.5231C42.1442 32.7478 42.1292 32.9675 42.1041 33.1822V33.1872C42.0991 33.2221 42.0941 33.2571 42.0891 33.297C42.0891 33.312 42.0841 33.332 42.0791 33.352C42.0741 33.3819 42.069 33.4069 42.064 33.4368C42.054 33.4918 42.044 33.5517 42.0289 33.6066C41.5276 35.9832 39.4122 37.7706 36.8756 37.7706H5.26866C3.81489 37.7706 2.49647 37.1814 1.544 36.2328C0.591533 35.2842 0 33.9711 0 32.5231C0 31.5196 0.285741 30.576 0.777014 29.7821L6.60211 19.7316C6.25622 20.4306 6.06572 21.2144 6.06572 22.0432C6.06572 24.7743 8.14793 26.9961 10.8249 27.2507C10.9903 27.2657 11.1607 27.2757 11.3312 27.2757C11.5016 27.2757 11.6909 27.2757 11.8507 27.2757H36.8806C38.3344 27.2757 39.6528 27.8649 40.6053 28.8135C41.5527 29.7671 42.1442 31.0752 42.1442 32.5231Z" fill="#FC3B36"/>
<defs>
<linearGradient id="paint0_linear" x1="23.1766" y1="9.01347" x2="33.9069" y2="32.1909" gradientUnits="userSpaceOnUse">
<stop stop-color="#FE3B2F"/>
<stop offset="1" stop-color="#FFCF00"/>
</linearGradient>
<linearGradient id="paint1_linear" x1="21.4605" y1="4.29211" x2="5.1505" y2="33.4785" gradientUnits="userSpaceOnUse">
<stop stop-color="#0029FF"/>
<stop offset="1" stop-color="#24A3FF"/>
</linearGradient>
</defs>
</svg>
