<svg width="116" height="29" viewBox="0 0 116 29" fill="none" xmlns="http://www.w3.org/2000/svg">
<path d="M11.4569 29H7.16064L13.1755 0H18.0446L11.4569 29Z" fill="#CACACA"/>
<path d="M4.2963 29H0L6.01481 0H10.884L4.2963 29Z" fill="#CACACA"/>
<path d="M18.6171 29H14.3208L20.3356 0H25.2048L18.6171 29Z" fill="#CACACA"/>
<path d="M109.699 29H21.4814L27.4963 0H116L109.699 29Z" fill="#CACACA"/>
<path d="M44.9684 23.8316H41.5314L36.3759 8.90091V9.76229C36.0894 10.9108 36.0894 12.0593 35.803 12.3465C35.803 12.9207 34.9438 16.6534 33.5117 23.5445H30.6475L34.6573 4.8811H38.0944L42.9635 19.8118C42.9635 19.2375 43.2499 18.6633 43.2499 17.2276C43.5364 16.0791 43.5363 15.2177 43.8228 14.6435L45.8277 4.8811H48.6919L44.9684 23.8316Z" fill="#3F3F3F"/>
<path d="M59.576 23.8316H49.5513L53.5612 5.16821H63.5859L63.013 7.75237H56.1389L54.9933 12.9207H61.2945L60.7217 15.5048H54.4204L53.2747 21.2474H60.1488L59.576 23.8316Z" fill="#3F3F3F"/>
<path d="M79.3393 23.8316H75.9022L75.3294 12.9207V10.6237V9.18803C75.043 10.3365 74.4701 11.7722 73.8973 12.9207L69.0281 23.8316H65.8775L65.3047 5.16823H68.1689L68.4553 16.0791C68.4553 17.2276 68.4553 18.6633 68.1689 20.3861C68.7417 18.3762 69.601 16.9405 69.8874 15.792L74.7565 5.16823H77.6207L77.9072 15.792V18.089V20.3861C78.1936 19.5247 78.48 18.6633 78.7664 17.8019C79.0528 16.9405 79.3393 16.0791 79.6257 15.792L84.2084 4.8811H87.359L79.3393 23.8316Z" fill="#3F3F3F"/>
<path d="M97.0974 18.376C97.0974 20.0988 96.5246 21.5344 95.3789 22.6829C94.2332 23.8314 92.5147 24.1186 90.2233 24.1186C88.5048 24.1186 87.0727 23.8314 85.6406 23.2572V20.3859C87.0727 21.2473 88.5048 21.5344 90.2233 21.5344C91.369 21.5344 92.2283 21.2473 93.0875 20.673C93.6604 20.0988 94.2332 19.5245 94.2332 18.6631C94.2332 18.0889 93.9468 17.5146 93.6604 17.2275C93.374 16.6532 92.5147 16.079 91.369 15.5047C90.5098 14.9304 89.9369 14.3562 89.3641 14.0691C89.0777 13.4948 88.5048 13.2077 88.5048 12.6334C88.2184 12.0592 88.2184 11.4849 88.2184 10.9106C88.2184 9.76213 88.5048 8.90074 89.0777 8.03936C89.6505 7.17797 90.2233 6.60371 91.369 6.02946C92.2283 5.4552 93.374 5.4552 94.5196 5.4552C96.2382 5.4552 97.9567 5.74233 99.3888 6.60371L98.2431 9.18787C96.811 8.61362 95.6653 8.32649 94.5196 8.32649C93.6604 8.32649 92.8011 8.61362 92.2283 9.18787C91.6554 8.61362 91.369 9.475 91.369 10.0493C91.369 10.3364 91.369 10.9106 91.6554 11.1978C91.6554 11.4849 91.6554 11.772 91.9419 12.0592C92.2283 12.3463 92.8011 12.6334 93.6604 13.2077C95.0925 14.0691 95.9517 14.9304 96.5246 15.5047C97.0974 16.3661 97.0974 17.2275 97.0974 18.376Z" fill="#3F3F3F"/>
</svg>
