<svg width="165" height="41" viewBox="0 0 165 41" fill="none" xmlns="http://www.w3.org/2000/svg">
<g clip-path="url(#clip0)">
<path d="M16.2962 41H10.1851L18.7406 0H25.6665L16.2962 41Z" fill="#AD2DFF"/>
<path d="M6.11111 41H0L8.55556 0H15.4815L6.11111 41Z" fill="#AD2DFF"/>
<path d="M26.4817 41H20.3706L28.9262 0H35.8521L26.4817 41Z" fill="#AD2DFF"/>
<path d="M156.037 41H30.5557L39.1112 0H165L156.037 41Z" fill="url(#paint0_linear)"/>
<path d="M63.9636 33.693H59.0747L51.7414 12.584V13.8019C51.334 15.4256 51.334 17.0494 50.9266 17.4553C50.9266 18.2672 49.7044 23.5444 47.6673 33.287H43.5933L49.297 6.90088H54.1859L61.1118 28.0098C61.1118 27.1979 61.5192 26.386 61.5192 24.3563C61.9266 22.7326 61.9266 21.5147 62.334 20.7029L65.1859 6.90088H69.2599L63.9636 33.693Z" fill="white"/>
<path d="M84.7417 33.6929H70.4824L76.1861 7.30676H90.4454L89.6306 10.9602H79.8528L78.2232 18.2672H87.1861L86.3713 21.9206H77.4084L75.7787 30.0394H85.5565L84.7417 33.6929Z" fill="white"/>
<path d="M112.853 33.693H107.964L107.149 18.2672V15.0197V12.99C106.742 14.6137 105.927 16.6435 105.112 18.2672L98.1859 33.693H93.7045L92.8896 7.30682H96.9637L97.3711 22.7326C97.3711 24.3563 97.3711 26.386 96.9637 28.8217C97.7785 25.9801 99.0008 23.9504 99.4082 22.3266L106.334 7.30682H110.408L110.816 22.3266V25.5741V28.8217C111.223 27.6038 111.63 26.386 112.038 25.1682C112.445 23.9504 112.853 22.7326 113.26 22.3266L119.779 6.90088H124.26L112.853 33.693Z" fill="white"/>
<path d="M138.112 25.98C138.112 28.4156 137.297 30.4453 135.668 32.0691C134.038 33.6928 131.594 34.0988 128.334 34.0988C125.89 34.0988 123.853 33.6928 121.816 32.881V28.8216C123.853 30.0394 125.89 30.4453 128.334 30.4453C129.964 30.4453 131.186 30.0394 132.409 29.2275C133.223 28.4156 134.038 27.6037 134.038 26.3859C134.038 25.574 133.631 24.7621 133.223 24.3562C132.816 23.5443 131.594 22.7324 129.964 21.9206C128.742 21.1087 127.927 20.2968 127.112 19.8909C126.705 19.079 125.89 18.673 125.89 17.8612C125.483 17.0493 125.483 16.2374 125.483 15.4255C125.483 13.8018 125.89 12.5839 126.705 11.3661C127.52 10.1483 128.334 9.33641 129.964 8.52453C131.186 7.71265 132.816 7.71265 134.446 7.71265C136.89 7.71265 139.334 8.11859 141.371 9.33641L139.742 12.9899C137.705 12.178 136.075 11.7721 134.446 11.7721C133.223 11.7721 132.001 12.178 131.186 12.9899C130.371 12.178 129.964 13.3958 129.964 14.2077C129.964 14.6136 129.964 15.4255 130.371 15.8315C130.371 16.2374 130.371 16.6433 130.779 17.0493C131.186 17.4552 132.001 17.8612 133.223 18.673C135.26 19.8909 136.483 21.1087 137.297 21.9206C138.112 23.1384 138.112 24.3562 138.112 25.98Z" fill="white"/>
</g>
<defs>
<linearGradient id="paint0_linear" x1="31" y1="20" x2="165" y2="20.1554" gradientUnits="userSpaceOnUse">
<stop stop-color="#BD30FF"/>
<stop offset="1" stop-color="#000AFF"/>
</linearGradient>
<clipPath id="clip0">
<rect width="165" height="41" fill="white"/>
</clipPath>
</defs>
</svg>
